<?xml version="1.0" encoding="UTF-8"?><svg id="uuid-7a9822c4-5b58-483e-8881-a9116947acfd" xmlns="http://www.w3.org/2000/svg" xmlns:xlink="http://www.w3.org/1999/xlink" viewBox="0 0 300 37.91"><defs><style>.uuid-a76fd350-43ed-4257-b084-808bbbe8b081{fill:url(#uuid-2d1eaa01-c288-4d51-9f7b-498eb14a66a3);}.uuid-6757ae70-7a27-43b9-bcf2-f329ff330b24{fill:url(#uuid-dd31c0d0-bfc7-4773-91d7-57628e6988f1);}.uuid-f78c6b1e-a181-4677-821f-47bf6556343b{fill:url(#uuid-5aa3fa15-b15e-427e-a19f-a927f0786d04);}.uuid-960db370-0a20-4c2e-9fa8-061db4af1786{fill:#236192;}</style><linearGradient id="uuid-5aa3fa15-b15e-427e-a19f-a927f0786d04" x1="25.91" y1="1.9" x2="8.07" y2="37.58" gradientUnits="userSpaceOnUse"><stop offset="0" stop-color="#0064c8"/><stop offset=".9" stop-color="#2ec4ff"/></linearGradient><linearGradient id="uuid-dd31c0d0-bfc7-4773-91d7-57628e6988f1" x1="29.8" y1="-6.73" x2="49.4" y2="39.12" gradientUnits="userSpaceOnUse"><stop offset="0" stop-color="#00d649"/><stop offset="1" stop-color="#2ec4ff"/></linearGradient><linearGradient id="uuid-2d1eaa01-c288-4d51-9f7b-498eb14a66a3" x1="65.02" y1="40.22" x2="81.79" y2="-.15" gradientUnits="userSpaceOnUse"><stop offset="0" stop-color="#0064c8"/><stop offset=".8" stop-color="#2ec4ff"/></linearGradient></defs><g><path class="uuid-f78c6b1e-a181-4677-821f-47bf6556343b" d="M19.4,33.25c-3.67,0-6.09-1.86-6.09-6.25,0-6.49,7.27-20.02,14.04-24.78C25.65,1.02,23.61,.21,21.35,.02h-1.33C8.88,.02,0,17.93,0,26.4c0,6.92,5.05,11.51,12.77,11.51s13.59-5.55,15.14-7.42c-.04-.07-.08-.15-.11-.22-1.42,.88-4.58,2.98-8.41,2.98Z"/><path class="uuid-6757ae70-7a27-43b9-bcf2-f329ff330b24" d="M55.24,29.87S45.73,7.67,45.73,7.67c-1.81-4.49-6.21-7.67-11.36-7.67h-12.16l-.87,.02c4.73,.4,8.5,3.5,10.17,7.22,.01,.03,9.51,22.2,9.51,22.2,1.81,4.49,6.21,7.67,11.36,7.67h.41c2.23-.34,4.25-1.32,5.92-2.73-1.48-1.2-2.68-2.74-3.47-4.51Z"/><path class="uuid-a76fd350-43ed-4257-b084-808bbbe8b081" d="M82.97,0C77.82,0,73.42,3.17,71.61,7.67c0,0-9.5,22.17-9.51,22.2-1.67,3.72-5.14,6.6-9.3,7.24h12.16c5.14,0,9.54-3.17,11.36-7.67,0,0,9.5-22.17,9.51-22.2,1.67-3.72,5.14-6.31,9.3-6.95V0h-12.16Z"/></g><g><g><polygon class="uuid-960db370-0a20-4c2e-9fa8-061db4af1786" points="143.33 25.58 135.19 6.64 129.55 6.64 140.8 33.13 145.87 33.13 157.11 6.64 151.47 6.64 143.33 25.58"/><path class="uuid-960db370-0a20-4c2e-9fa8-061db4af1786" d="M204.23,6.08c-2.25,0-5.07,1.13-6.2,2.82l-.27,.27-1.07-2.53h-4.85v26.49h5.64V17.13c.11-3.27,2.87-5.97,6.2-5.97,3.72,0,5.47,2.03,5.64,5.64v16.34h5.64V16.79c0-6.2-3.94-10.71-10.71-10.71Z"/><path class="uuid-960db370-0a20-4c2e-9fa8-061db4af1786" d="M252.83,6.08c-7.33,0-13.81,5.64-13.81,13.81s6.48,13.81,13.81,13.81,13.81-5.64,13.81-13.81-6.48-13.81-13.81-13.81Zm0,22.54c-5.35,0-8.17-3.94-8.17-8.74s2.82-8.74,8.17-8.74,8.17,3.94,8.17,8.74-2.82,8.74-8.17,8.74Z"/><path class="uuid-960db370-0a20-4c2e-9fa8-061db4af1786" d="M234.55,11.72l2.15-5.07h-7.79V0h-5.52V6.64h-2.82l-2.15,5.07h4.97v13.53c0,5.07,3.04,7.89,8.68,7.89l3.1-.56v-5.07l-3.38,.56c-1.69,0-2.87-1.13-2.87-2.82V11.72h5.64Z"/><path class="uuid-960db370-0a20-4c2e-9fa8-061db4af1786" d="M180.73,6.64h-.52l-1.07,2.52-.27-.27c-1.69-1.69-4.51-2.82-7.33-2.82-7.33,0-13.53,5.64-13.53,13.81s6.2,13.81,13.53,13.81c2.82,0,5.64-1.13,7.33-2.82l.28-.28,1.07,2.54h4.85V6.64h-4.34Zm-8.9,21.98c-5.35,0-8.23-3.94-8.23-8.74s2.87-8.74,8.23-8.74c4.79,0,8.17,3.94,8.17,8.74s-3.38,8.74-8.17,8.74Z"/><path class="uuid-960db370-0a20-4c2e-9fa8-061db4af1786" d="M122.05,6.64h-.52l-1.07,2.52-.27-.27c-1.69-1.69-4.51-2.82-7.33-2.82-7.33,0-13.53,5.64-13.53,13.81s6.2,13.81,13.53,13.81c2.82,0,5.64-1.13,7.33-2.82l.28-.28,1.07,2.54h4.85V6.64h-4.34Zm-8.9,21.98c-5.35,0-8.23-3.94-8.23-8.74s2.87-8.74,8.23-8.74c4.79,0,8.17,3.94,8.17,8.74s-3.38,8.74-8.17,8.74Z"/><path class="uuid-960db370-0a20-4c2e-9fa8-061db4af1786" d="M283.89,6.08c-2.25,0-4.51,1.13-6.2,3.38l-.21,.21-1.29-3.03h-4.7v26.49h5.64v-15.44c.11-3.27,2.87-5.97,6.2-5.97h1.14l2.17-5.11c-1.08-.53-1.64-.53-2.75-.53Z"/></g><path class="uuid-960db370-0a20-4c2e-9fa8-061db4af1786" d="M291.83,7.41h-1.44v-.77h3.75v.77h-1.45v4.3h-.86V7.41Zm3.08-.77h.88l1.66,3.05,1.66-3.05h.88v5.07h-.85v-3.49l-1.41,2.48h-.57l-1.43-2.48v3.49h-.83V6.64Z"/></g></svg>