<svg class="av-card-curve-shapes--vertical" xmlns="http://www.w3.org/2000/svg" xmlns:xlink="http://www.w3.org/1999/xlink" viewBox="0 0 479.211 937.586">
  <defs>
    <linearGradient id="hc-2-linear-gradient" y1="0.5" x2="1.005" y2="0.5" gradientUnits="objectBoundingBox">
      <stop offset="0" stop-color="#99efb2"></stop>
      <stop offset="1" stop-color="#00c4ff"></stop>
    </linearGradient>
    <linearGradient id="hc-2-linear-gradient-2" x1="0" y1="0.5" x2="1.018" y2="0.5" xlink:href="#hc-2-linear-gradient"></linearGradient>
    <linearGradient id="hc-2-linear-gradient-3" x1="0" y1="0.5" x2="1" y2="0.5" xlink:href="#hc-2-linear-gradient"></linearGradient>
    <linearGradient id="hc-2-linear-gradient-4" x1="0" y1="0.5" x2="1.002" y2="0.5" xlink:href="#hc-2-linear-gradient"></linearGradient>
  </defs>
  <g transform="translate(-854 -17.584)">
    <path d="M886.619,351.5c26.2-76.384,74.88-140.916,140.762-186.622L1239.7,17.584H854V955.17H955.035c-36.69-178.341-78.943-371.2-79.383-373.213C857.917,503.8,861.709,424.108,886.619,351.5Z" fill="#001551" class="shape-curve-space"></path>
    <path d="M902.966,354.336c26.24-76.484,74.979-141.1,140.95-186.869L1259.964,17.584h-15.005L1029.092,167.342c-128.3,89.006-187.378,251.5-150.513,413.962.444,2.023,42.8,195.337,79.519,373.866h11.393C932.859,776.593,892.4,587.022,891.98,585.054,874.229,506.823,878.026,427.034,902.966,354.336Z" fill="#001551" class="shape-curve-space"></path>
    <path d="M921.042,356.174c26.275-76.586,75.079-141.29,141.138-187.118L1280.519,17.584h-13.538L1046.195,170.753c-128.128,88.89-187.128,251.174-150.309,413.44.426,1.995,41.009,192.15,77.688,370.977h11.845c-36.565-178.825-74.986-366.094-75.384-368.032C892.27,508.843,896.071,428.959,921.042,356.174Z" fill="#001551" class="shape-curve-space"></path>
    <path d="M941.525,359.012c26.309-76.688,75.178-141.478,141.325-187.367L1304.921,17.584h-17.882l.732,1.054L1065.029,173.164c-127.961,88.772-186.88,250.852-150.106,412.919.408,1.99,38.973,189.959,75.6,369.087h15.145C969.142,776.664,930.9,592.155,930.5,590.245,912.717,511.863,916.524,431.885,941.525,359.012Z" fill="#001551" class="shape-curve-space"></path>
    <path d="M1046.195,170.753,1266.981,17.584h-7.017L1043.916,167.467c-65.971,45.766-114.71,110.385-140.95,186.869-24.94,72.7-28.737,152.487-10.986,230.718.42,1.968,40.879,191.539,77.511,370.116h4.083C936.9,776.343,896.312,586.188,895.886,584.193,859.067,421.927,918.067,259.643,1046.195,170.753Z" fill="#ffffff" class="shape-curve-space"></path>
    <path d="M1046.195,170.753,1266.981,17.584h-7.017L1043.916,167.467c-65.971,45.766-114.71,110.385-140.95,186.869-24.94,72.7-28.737,152.487-10.986,230.718.42,1.968,40.879,191.539,77.511,370.116h4.083C936.9,776.343,896.312,586.188,895.886,584.193,859.067,421.927,918.067,259.643,1046.195,170.753Z" opacity="0.5" fill="url(#hc-2-linear-gradient)"></path>
    <path d="M1029.092,167.342,1244.959,17.584H1239.7L1027.381,164.877C961.5,210.583,912.824,275.115,886.619,351.5c-24.91,72.609-28.7,152.3-10.967,230.458.44,2.011,42.693,194.872,79.383,373.213H958.1C921.375,776.641,879.023,583.327,878.579,581.3,841.714,418.837,900.794,256.348,1029.092,167.342Z" fill="#ffffff" class="shape-curve-space"></path>
    <path d="M1029.092,167.342,1244.959,17.584H1239.7L1027.381,164.877C961.5,210.583,912.824,275.115,886.619,351.5c-24.91,72.609-28.7,152.3-10.967,230.458.44,2.011,42.693,194.872,79.383,373.213H958.1C921.375,776.641,879.023,583.327,878.579,581.3,841.714,418.837,900.794,256.348,1029.092,167.342Z" opacity="0.5" fill="url(#hc-2-linear-gradient-2)"></path>
    <path d="M1065.029,173.164,1287.771,18.638l-.732-1.054h-6.52L1062.18,169.056c-66.059,45.828-114.863,110.532-141.138,187.118-24.971,72.785-28.772,152.669-11.007,230.964.4,1.938,38.819,189.207,75.384,368.032h5.1c-36.626-179.128-75.191-367.1-75.6-369.087C878.149,424.016,937.068,261.936,1065.029,173.164Z" fill="#ffffff" class="shape-curve-space"></path>
    <path d="M1065.029,173.164,1287.771,18.638l-.732-1.054h-6.52L1062.18,169.056c-66.059,45.828-114.863,110.532-141.138,187.118-24.971,72.785-28.772,152.669-11.007,230.964.4,1.938,38.819,189.207,75.384,368.032h5.1c-36.626-179.128-75.191-367.1-75.6-369.087C878.149,424.016,937.068,261.936,1065.029,173.164Z" opacity="0.75" fill="url(#hc-2-linear-gradient-3)"></path>
    <path d="M1086.27,176.575,1315.446,17.584h-10.525L1082.85,171.645C1016.7,217.534,967.834,282.324,941.525,359.012c-25,72.873-28.808,152.851-11.023,231.233.4,1.91,38.64,186.419,75.165,364.925h6.125c-36.6-178.887-75.018-364.23-75.427-366.2C899.638,427.105,958.479,265.23,1086.27,176.575Z" fill="url(#hc-2-linear-gradient-4)"></path>
    <path d="M1315.446,17.584,1086.27,176.575c-127.791,88.655-186.632,250.53-149.905,412.4.409,1.968,38.825,187.311,75.427,366.2h12.453c-38.119-186.477-75.132-367.534-75.132-367.534C914.228,433.892,972.988,267.487,1110.47,172.11L1333.211,17.584Z" fill="#001551" class="shape-curve-space"></path>
  </g>
</svg>
